<svg width="22" height="20" viewBox="0 0 22 20" fill="none" xmlns="http://www.w3.org/2000/svg">
<path d="M20.9 6.5H20.8V6.6V16.5C20.8 18.2674 19.3674 19.7 17.6 19.7H4.4C2.63269 19.7 1.2 18.2674 1.2 16.5V6.6V6.5H1.1C0.54772 6.5 0.1 6.05228 0.1 5.5V3.3C0.1 1.53269 1.53269 0.1 3.3 0.1H18.7C20.4674 0.1 21.9 1.53269 21.9 3.3V5.5C21.9 6.05228 21.4523 6.5 20.9 6.5ZM3.3 6.5H3.2V6.6V16.5C3.2 17.1628 3.73726 17.7 4.4 17.7H17.6C18.2628 17.7 18.8 17.1628 18.8 16.5V6.6V6.5H18.7H3.3ZM2.1 4.4V4.5H2.2H19.8H19.9V4.4V3.3C19.9 2.63726 19.3628 2.1 18.7 2.1H3.3C2.63726 2.1 2.1 2.63726 2.1 3.3V4.4ZM6.7 11C6.7 10.4477 7.14772 10 7.7 10H14.3C14.8523 10 15.3 10.4477 15.3 11C15.3 11.5523 14.8523 12 14.3 12H7.7C7.14772 12 6.7 11.5523 6.7 11Z" fill="#797979" stroke="white" stroke-width="0.2"/>
</svg>
