<svg width="14" height="20" viewBox="0 0 14 20" fill="none" xmlns="http://www.w3.org/2000/svg">
<path d="M9.08717 7.2917C9.67067 6.67579 10 5.86586 10 4.99991C10 3.15901 8.50767 1.66667 6.66675 1.66667C4.82568 1.66667 3.33333 3.15901 3.33333 4.99991C3.33333 5.86615 3.66292 6.67632 4.24676 7.2923L5.01542 8.10331L2.39985 13.9194C1.91656 14.9941 1.66667 16.159 1.66667 17.3373V18.3332H11.6679V17.3373C11.6679 16.159 11.418 14.9941 10.9347 13.9194L8.31883 8.10268L9.08717 7.2917ZM12.4547 13.2358C13.0347 14.5254 13.3346 15.9233 13.3346 17.3373V18.3332C13.3346 19.2537 12.5884 19.9999 11.6679 19.9999H1.66667C0.746192 19.9999 0 19.2537 0 18.3332V17.3373C0 15.9233 0.299867 14.5254 0.879817 13.2358L3.03711 8.43883C2.1877 7.54266 1.66667 6.33213 1.66667 4.99991C1.66667 2.23853 3.9052 0 6.66658 0C9.42817 0 11.6667 2.23853 11.6667 4.99991C11.6667 6.33168 11.146 7.54185 10.2971 8.43792L12.4547 13.2358Z" fill="#797979"/>
<path d="M9.08717 7.2917C9.67067 6.67579 10 5.86586 10 4.99991C10 3.15901 8.50767 1.66667 6.66675 1.66667C4.82568 1.66667 3.33333 3.15901 3.33333 4.99991C3.33333 5.86615 3.66292 6.67632 4.24676 7.2923L5.01542 8.10331L2.39985 13.9194C1.91656 14.9941 1.66667 16.159 1.66667 17.3373V18.3332H11.6679V17.3373C11.6679 16.159 11.418 14.9941 10.9347 13.9194L8.31883 8.10268L9.08717 7.2917ZM12.4547 13.2358C13.0347 14.5254 13.3346 15.9233 13.3346 17.3373V18.3332C13.3346 19.2537 12.5884 19.9999 11.6679 19.9999H1.66667C0.746192 19.9999 0 19.2537 0 18.3332V17.3373C0 15.9233 0.299867 14.5254 0.879817 13.2358L3.03711 8.43883C2.1877 7.54266 1.66667 6.33213 1.66667 4.99991C1.66667 2.23853 3.9052 0 6.66658 0C9.42817 0 11.6667 2.23853 11.6667 4.99991C11.6667 6.33168 11.146 7.54185 10.2971 8.43792L12.4547 13.2358Z" stroke="#797979"/>
</svg>
