<svg width="22" height="22" viewBox="0 0 22 22" fill="none" xmlns="http://www.w3.org/2000/svg">
<path d="M1 7.99999V5.49999C1 3.01 3.01 1 5.49999 1H7.99999" stroke="#787878" stroke-width="1.8" stroke-linecap="round" stroke-linejoin="round"/>
<path d="M14 1H16.5C18.99 1 21 3.01 21 5.49999V7.99999" stroke="#787878" stroke-width="1.8" stroke-linecap="round" stroke-linejoin="round"/>
<path d="M21 15V16.5C21 18.99 18.99 21 16.5 21H15" stroke="#787878" stroke-width="1.8" stroke-linecap="round" stroke-linejoin="round"/>
<path d="M7.99999 21H5.49999C3.01 21 1 18.99 1 16.5V14" stroke="#787878" stroke-width="1.8" stroke-linecap="round" stroke-linejoin="round"/>
<path d="M9.49999 6V7.99999C9.49999 8.99999 8.99999 9.49999 7.99999 9.49999H6C5 9.49999 4.5 8.99999 4.5 7.99999V6C4.5 5 5 4.5 6 4.5H7.99999C8.99999 4.5 9.49999 5 9.49999 6Z" stroke="#787878" stroke-width="1.8" stroke-linecap="round" stroke-linejoin="round"/>
<path d="M17.5 6V7.99999C17.5 8.99999 17 9.49999 16 9.49999H14C13 9.49999 12.5 8.99999 12.5 7.99999V6C12.5 5 13 4.5 14 4.5H16C17 4.5 17.5 5 17.5 6Z" stroke="#787878" stroke-width="1.8" stroke-linecap="round" stroke-linejoin="round"/>
<path d="M9.49999 14V16C9.49999 17 8.99999 17.5 7.99999 17.5H6C5 17.5 4.5 17 4.5 16V14C4.5 13 5 12.5 6 12.5H7.99999C8.99999 12.5 9.49999 13 9.49999 14Z" stroke="#787878" stroke-width="1.8" stroke-linecap="round" stroke-linejoin="round"/>
<path d="M17.5 14V16C17.5 17 17 17.5 16 17.5H14C13 17.5 12.5 17 12.5 16V14C12.5 13 13 12.5 14 12.5H16C17 12.5 17.5 13 17.5 14Z" stroke="#787878" stroke-width="1.8" stroke-linecap="round" stroke-linejoin="round"/>
</svg>
